<svg xmlns="http://www.w3.org/2000/svg" width="36" height="44" viewBox="0 0 36 44" fill="none"><path d="M25.9627 0H9.92519C9.75674 0 9.58866 0.00484483 9.42506 0.0141618C9.2663 0.0234788 9.10716 0.0327958 8.94356 0.0514297C3.84568 0.560882 0 4.81763 0 9.94867V34.0562C0 39.5375 4.46246 44 9.94383 44C14.7708 44 18.8084 40.5419 19.7054 35.9814H25.9623C31.4575 35.9814 35.9296 31.5093 35.9296 26.0093V9.97215C35.93 4.47662 31.4579 0 25.9627 0ZM9.94383 40.0984C6.61207 40.0984 3.90158 37.3883 3.90158 34.0562V33.9675C4.04655 34.0748 4.196 34.1825 4.34544 34.2854C4.45762 34.3603 4.56979 34.4303 4.68644 34.5049C4.7893 34.5705 4.90148 34.6312 5.00881 34.6964C5.15825 34.7807 5.31254 34.86 5.4713 34.9394C5.60211 35.005 5.73777 35.0702 5.8779 35.131C6.28933 35.3132 6.71903 35.4675 7.15842 35.5935C7.31718 35.6401 7.48079 35.6822 7.6444 35.7198C7.76104 35.7478 7.87807 35.7712 7.99956 35.7947C8.04167 35.804 8.08378 35.8134 8.13037 35.8227C8.21459 35.8368 8.30329 35.8506 8.38752 35.8648C8.48106 35.8789 8.57908 35.8927 8.67262 35.9021C8.79411 35.9207 8.92008 35.9348 9.04157 35.9442L9.22381 35.9583C9.31735 35.9628 9.41052 35.9676 9.50407 35.9725C9.64419 35.9773 9.78432 35.9818 9.92482 35.9818H15.6771C14.8688 38.3696 12.607 40.0988 9.94345 40.0988L9.94383 40.0984ZM32.0281 26.0097C32.0281 29.3556 29.3086 32.0799 25.9627 32.0799H9.92519C9.60283 32.0799 9.28977 32.0564 8.9812 32.0049C8.9156 31.9956 8.85039 31.9863 8.78479 31.9722C8.06068 31.8365 7.3783 31.5704 6.76152 31.1966C6.68661 31.15 6.61207 31.1031 6.53717 31.0516C6.46226 31.005 6.39219 30.9536 6.31766 30.8973C6.23343 30.8366 6.14958 30.771 6.0702 30.7058C6.00014 30.6499 5.93454 30.5891 5.86448 30.5284C5.74299 30.4211 5.62149 30.3089 5.50932 30.1874C5.42062 30.0938 5.33639 29.9958 5.25701 29.893C5.20558 29.8415 5.16347 29.7901 5.1262 29.7342C5.06546 29.6641 5.01403 29.5892 4.9626 29.5147C4.70098 29.1409 4.47662 28.7392 4.3037 28.3139C4.26643 28.2252 4.23364 28.141 4.20568 28.0523C4.08904 27.7299 4.00481 27.3934 3.94406 27.0431C3.92543 26.9496 3.91127 26.856 3.90195 26.7628V9.94867C3.90195 6.83196 6.23828 4.24295 9.32257 3.93475C9.42543 3.92543 9.53761 3.91611 9.64047 3.91127C9.73401 3.90642 9.82755 3.90642 9.92556 3.90642H25.9631C29.309 3.90642 32.0284 6.62624 32.0284 9.97178V26.0093L32.0281 26.0097Z" fill="#623CEA"></path><path d="M17.9205 15.6099C14.8339 15.6099 12.2587 13.318 11.8972 10.268V9.97168H7.99414V17.5859C7.99414 23.0699 12.457 27.5316 17.9424 27.5316C23.4279 27.5316 27.8907 23.0699 27.8907 17.5859V15.6099H17.9205ZM17.9424 23.6285C14.6092 23.6285 11.8976 20.918 11.8976 17.5859V17.4998C13.5754 18.7684 15.6654 19.5134 17.9208 19.5134H23.6728C22.8663 21.9034 20.6023 23.6285 17.9428 23.6285H17.9424Z" fill="#623CEA"></path></svg>